<svg version="1.1" id="Capa_1" xmlns="http://www.w3.org/2000/svg" xmlns:xlink="http://www.w3.org/1999/xlink" x="0px" y="0px" width="90px" height="46px" viewBox="0 0 90 46" enable-background="new 0 0 90 46" xml:space="preserve">
            <g>
            	<path fill="#02487e" d="M3.351,8.856c-0.526,0-1.207-0.458-2.044-1.375C0.469,6.565,0.051,5.824,0.051,5.256
            		c0-0.6,0.41-1.35,1.231-2.25c0.82-0.9,1.51-1.35,2.069-1.35c0.525,0,1.207,0.459,2.044,1.375C6.232,3.949,6.651,4.69,6.651,5.256
            		c0,0.6-0.411,1.35-1.231,2.25C4.598,8.406,3.909,8.856,3.351,8.856z M0.051,34.856v-22.6h6.6v22.6H0.051z"></path>
            	<path fill="#02487e" d="M23,34.856v-14.3c0-0.867-0.225-1.583-0.675-2.15c-0.45-0.566-1.109-0.85-1.975-0.85
            		c-0.867,0-1.55,0.283-2.05,0.85c-0.5,0.567-0.75,1.334-0.75,2.3v14.15H11v-22.65h5.75l0.2,2.1c0.5-0.8,1.208-1.433,2.125-1.9
            		c0.917-0.466,2.042-0.7,3.375-0.7c2.167,0,3.891,0.675,5.175,2.025c1.283,1.35,1.925,3.192,1.925,5.525v15.6H23z"></path>
            	<path fill="#02487e" d="M47.85,6.356c-0.199-0.133-0.523-0.275-0.975-0.425c-0.449-0.15-0.992-0.225-1.625-0.225
            		c-1.233,0-2.2,0.434-2.9,1.3c-0.7,0.867-1.05,2.017-1.05,3.45v1.75H46l-0.4,5.45h-4.3v17.2h-6.45v-17.2h-2.9v-5.45h2.9v-1
            		c0-3.667,0.883-6.433,2.65-8.3c1.767-1.866,4.183-2.8,7.25-2.8c1.434,0,2.584,0.233,3.451,0.7L47.85,6.356z"></path>
            	<path fill="#02487e" d="M61.699,34.856l-0.15-2.1c-0.5,0.767-1.225,1.392-2.174,1.875c-0.951,0.482-2.076,0.725-3.375,0.725
            		c-2.135,0-3.85-0.683-5.15-2.05c-1.301-1.366-1.949-3.2-1.949-5.5v-15.6h6.549v14.3c0,0.867,0.225,1.583,0.676,2.149
            		c0.449,0.567,1.107,0.851,1.975,0.851s1.551-0.283,2.051-0.851c0.5-0.566,0.75-1.333,0.75-2.3v-14.15h6.549v22.65H61.699z"></path>
            	<path fill="#02487e" d="M83.398,32.906c-1.199,3.796-2.598,6.718-4.197,8.767c-1.6,2.048-3.564,3.455-5.896,4.221l-2.656-4.445
            		c1.5-0.6,2.709-1.432,3.625-2.497c0.918-1.065,1.793-2.798,2.625-5.194l-7-21.55l6.359-0.003l2.623,8.56
            		c0.102,0.333,0.281,0.991,0.539,1.973c0.256,0.982,0.453,1.755,0.592,2.321c0.17-0.731,0.34-1.404,0.512-2.019
            		c0.172-0.614,0.395-1.354,0.668-2.218l2.672-8.609l6.086-0.004L83.398,32.906z"></path>
            </g>
          </svg>
